<?xml version="1.0" encoding="UTF-8" standalone="no"?>
<!-- Created with Inkscape (http://www.inkscape.org/) -->

<svg
   width="91.393524mm"
   height="56.683289mm"
   viewBox="0 0 91.393524 56.683289"
   version="1.1"
   id="svg1"
   xml:space="preserve"
   inkscape:export-filename="hob-weddings.svg"
   inkscape:export-xdpi="96"
   inkscape:export-ydpi="96"
   inkscape:version="1.4.2 (ebf0e940d0, 2025-05-08)"
   sodipodi:docname="hob-weddings.svg"
   xmlns:inkscape="http://www.inkscape.org/namespaces/inkscape"
   xmlns:sodipodi="http://sodipodi.sourceforge.net/DTD/sodipodi-0.dtd"
   xmlns="http://www.w3.org/2000/svg"
   xmlns:svg="http://www.w3.org/2000/svg"><sodipodi:namedview
     id="namedview1"
     pagecolor="#ffffff"
     bordercolor="#000000"
     borderopacity="0.25"
     inkscape:showpageshadow="2"
     inkscape:pageopacity="0.0"
     inkscape:pagecheckerboard="0"
     inkscape:deskcolor="#d1d1d1"
     inkscape:document-units="mm"
     inkscape:export-bgcolor="#e37c7c00"
     inkscape:zoom="2"
     inkscape:cx="332.25"
     inkscape:cy="525.25"
     inkscape:window-width="1918"
     inkscape:window-height="1050"
     inkscape:window-x="0"
     inkscape:window-y="28"
     inkscape:window-maximized="1"
     inkscape:current-layer="layer1" /><defs
     id="defs1" /><g
     inkscape:label="Layer 1"
     inkscape:groupmode="layer"
     id="layer1"
     inkscape:export-filename="hob-weddings.svg"
     inkscape:export-xdpi="96"
     inkscape:export-ydpi="96"
     transform="translate(-40.082849,-122.42376)"><path
       id="path1"
       style="display:inline;fill:#ffffff;fill-opacity:1;stroke:none;stroke-width:0.716358;stroke-opacity:0.13098"
       d="m 130.61028,122.42409 c -0.14216,-0.005 -0.30549,0.0469 -0.49451,0.16763 -2.15311,1.37561 -7.17748,2.03395 -7.17748,2.03395 0,0 -9.32937,-3.58821 -13.63557,2.63183 -4.30629,6.22007 0.11879,15.31051 0.11879,15.31051 -1.07654,1.91384 -3.94872,4.29341 -6.93722,4.18662 -3.349269,-0.11956 -4.904666,-3.58872 -4.904666,-3.58872 0,0 -0.986629,-1.4055 -1.554801,-6.10045 -0.671857,-5.54944 -12.17362,24.88419 -28.468299,25.95657 -7.688971,0.50603 -16.335189,-1.6409 -20.182444,-8.30454 -4.422282,-7.65962 -1.318249,-13.53956 -0.875775,-14.32875 3.993296,-7.12245 13.521857,-8.22724 21.89501,-8.70572 8.373153,-0.47845 13.51695,-2.97198 15.191748,-3.70889 2.990442,-1.31578 4.066363,-2.63147 2.750583,-2.87071 -1.315806,-0.23924 -8.373288,2.03395 -8.373288,2.03395 0,0 -4.28465,1.80596 -16.028512,1.91381 -12.899096,0.1184 -17.678319,6.82128 -17.678319,6.82128 0,0 -6.096989,5.1568 -3.551028,18.05828 2.186041,11.07761 30.450416,35.14375 53.509374,-9.01162 0.40865,3.26919 2.289395,11.52374 9.825217,8.41374 7.53587,-3.11002 6.57955,-7.29667 7.5365,-5.14356 0.95692,2.15309 3.82763,8.49342 3.82763,8.49342 0,0 2.75305,2.91792 1.43468,-0.35901 -1.33629,-3.32148 -3.41835,-10.43517 -3.41835,-10.43517 0,0 0.0186,-0.1968 5.57243,-7.38703 5.36922,-6.95133 12.31963,-10.6461 12.31963,-10.6461 0,0 0.67298,-5.38115 -0.70128,-5.43132 z m -11.95502,7.0783 c 2.43617,-0.0763 1.85792,0.68032 1.85792,0.68032 0,0 -6.92324,9.8497 -7.88015,9.49084 0,0 -4.01045,-8.68249 2.44884,-9.75905 1.61481,-0.26913 2.76133,-0.38667 3.57339,-0.41211 z"
       sodipodi:nodetypes="scccccccssscsscccscsscscccsssccss" /><path
       style="fill:#ffffff;fill-opacity:1;stroke:none;stroke-width:0.716358;stroke-opacity:0.13098"
       d="m 76.447893,179.10705 c -0.956951,-0.44856 -3.48284,-1.7944 -3.911684,-2.44913 -0.447766,-0.68357 1.479191,-4.27565 2.077258,-4.78401 0.509481,-0.4331 2.641697,0.80616 4.178467,2.09905 0.50913,0.42832 -1.745975,4.77525 -2.344041,5.13409 z"
       id="path3"
       sodipodi:nodetypes="csssc"
       inkscape:label="path3"
       inkscape:export-filename="hob-weddings1/static/favicon/hob-weddings.svg"
       inkscape:export-xdpi="96"
       inkscape:export-ydpi="96" /></g></svg>
