<?xml version="1.0" encoding="UTF-8"?>
<svg version="1.1" xmlns="http://www.w3.org/2000/svg" width="574" height="574">
<path d="M0 0 C6.54198328 -0.37030094 6.54198328 -0.37030094 8.59350586 1.28833008 C9.99167762 2.98987186 11.10298901 4.66125061 12.19140625 6.57421875 C12.77245117 7.57485352 12.77245117 7.57485352 13.36523438 8.59570312 C14.16942853 10.00074707 14.97148228 11.40701809 15.77148438 12.81445312 C16.79584667 14.57416732 17.89246434 16.29141083 19 18 C19.66 18 20.32 18 21 18 C21 17.34 21 16.68 21 16 C22.31200404 14.64567325 23.64631404 13.31266518 25 12 C25.33 11.34 25.66 10.68 26 10 C29.14581423 9.97111486 32.29159469 9.95324077 35.4375 9.9375 C36.78424805 9.92493164 36.78424805 9.92493164 38.15820312 9.91210938 C39.01220703 9.90888672 39.86621094 9.90566406 40.74609375 9.90234375 C41.53685303 9.89710693 42.3276123 9.89187012 43.14233398 9.88647461 C45 10 45 10 46 11 C46.33 10.34 46.66 9.68 47 9 C47.99 9 48.98 9 50 9 C49.125 13.75 49.125 13.75 48 16 C40.60714361 19.44368097 32.98906063 19.33809504 25 19 C25 19.66 25 20.32 25 21 C24.34 21 23.68 21 23 21 C22.731875 21.5775 22.46375 22.155 22.1875 22.75 C20.98199197 25.03412048 19.56864477 26.95431531 18 29 C19.81950417 28.99666908 19.81950417 28.99666908 21.67576599 28.99327087 C33.08046604 28.97304128 44.48516248 28.95802874 55.88987637 28.94818783 C61.75382164 28.94295854 67.61775249 28.93586006 73.48168945 28.92456055 C79.13561712 28.9137333 84.78953087 28.90772351 90.44346809 28.90512276 C92.6057361 28.90326821 94.76800331 28.89964705 96.93026543 28.89426994 C99.94758657 28.88706167 102.96484943 28.88600897 105.98217773 28.88647461 C106.8856041 28.88287933 107.78903046 28.87928406 108.71983337 28.87557983 C114.88594784 28.88594784 114.88594784 28.88594784 116 30 C116.04063832 31.66617115 116.042721 33.33388095 116 35 C113.4219208 35 110.88107425 34.91053607 108.30712891 34.78344727 C89.78604139 33.92996696 71.30122524 33.8782584 52.76538086 33.93133545 C48.71468652 33.94178178 44.66398533 33.94617746 40.61328125 33.95117188 C32.74216965 33.96172359 24.87109057 33.97866454 17 34 C16.855625 34.804375 16.71125 35.60875 16.5625 36.4375 C16 39 16 39 15 40 C16.12530624 39.99777939 17.25061249 39.99555878 18.41001892 39.99327087 C28.9906144 39.97304056 39.57120597 39.9580284 50.15181637 39.94818783 C55.59202312 39.94295872 61.03221431 39.93586057 66.47241211 39.92456055 C71.71785702 39.91373265 76.96328692 39.90772338 82.20874214 39.90512276 C84.21470946 39.90326833 86.22067592 39.89964738 88.22663689 39.89426994 C91.02602824 39.88706081 93.82535679 39.886009 96.62475586 39.88647461 C97.46272705 39.88287933 98.30069824 39.87928406 99.1640625 39.87557983 C104.88594784 39.88594784 104.88594784 39.88594784 106 41 C106.29421679 42.72085072 106.58393668 44.4426123 106.84887695 46.16821289 C108.81849423 58.64056221 113.25687504 69.91522547 123.42578125 77.90625 C129.97249419 82.63928099 135.04004465 85.12185726 143.109375 85.65625 C144.04523438 85.82640625 144.04523438 85.82640625 145 86 C146.20525943 88.41051887 146.13716136 89.95316536 146.15771484 92.64575195 C146.17310806 94.09284294 146.17310806 94.09284294 146.18881226 95.56916809 C146.19611359 96.61497543 146.20341492 97.66078278 146.2109375 98.73828125 C146.23900775 100.9420647 146.26767222 103.14584064 146.296875 105.34960938 C146.33813937 108.83227314 146.37501738 112.31479706 146.40136719 115.79760742 C146.42897093 119.15312838 146.47484653 122.50800738 146.5234375 125.86328125 C146.5283168 127.42288322 146.5283168 127.42288322 146.53329468 129.01399231 C146.62259044 135.99171728 146.62259044 135.99171728 150 142 C150 139.03 150 136.06 150 133 C150.66 133 151.32 133 152 133 C151.99214478 131.60430786 151.99214478 131.60430786 151.98413086 130.18041992 C151.81727622 96.00901123 151.81727622 96.00901123 153 80 C151.49759766 79.94392578 151.49759766 79.94392578 149.96484375 79.88671875 C138.90038383 79.38208262 131.48146447 77.54112819 123 70 C120.25731117 66.92991813 120 66.34345722 120 62 C121.75 62.1875 121.75 62.1875 124 63 C124.86625 64.11375 124.86625 64.11375 125.75 65.25 C131.31514695 72.05184627 137.97861791 73.82316851 146.4375 74.75 C148.22825314 74.97082994 150.01864434 75.19462227 151.80859375 75.421875 C152.98119751 75.55480957 152.98119751 75.55480957 154.17749023 75.69042969 C156 76 156 76 157 77 C157.08874467 78.81974276 157.10687271 80.64296165 157.09765625 82.46484375 C157.09440842 83.64063492 157.09116058 84.81642609 157.08781433 86.02784729 C157.0794606 87.31803268 157.07110687 88.60821808 157.0625 89.9375 C157.05761981 91.28234166 157.05330136 92.62718546 157.04951477 93.97203064 C157.04099525 96.83104721 157.03010153 99.69004037 157.01748657 102.54904175 C156.98656513 109.90896531 156.98209713 117.26892587 156.98046875 124.62890625 C156.98028433 125.34995607 156.98009991 126.0710059 156.9799099 126.81390572 C156.97927832 137.52693863 156.98821619 148.23927209 157.26245117 158.94946289 C157.31087634 160.87300503 157.34609721 162.79686556 157.38085938 164.72070312 C157.56573059 170.62649802 158.2079367 175.60255356 160.31176758 181.13452148 C161.61866575 184.67691556 161.70335496 188.26227247 162 192 C162.763125 192.20625 163.52625 192.4125 164.3125 192.625 C167.82618362 194.4226986 168.30175458 196.52967241 170 200 C172.07690578 200.96044102 172.07690578 200.96044102 174 201 C173.67 201.99 173.34 202.98 173 204 C168.2482602 203.56802365 166.07999946 202.67230705 163 199 C161.89593799 202.31218603 161.82619641 204.9021987 161.75390625 208.390625 C161.72103516 209.65777344 161.68816406 210.92492187 161.65429688 212.23046875 C161.59158016 214.89446678 161.53612532 217.55844159 161.48242188 220.22265625 C161.44826172 221.49496094 161.41410156 222.76726562 161.37890625 224.078125 C161.3538501 225.23731445 161.32879395 226.39650391 161.30297852 227.59082031 C160.97054517 231.33143214 160.13591037 234.43121332 159 238 C159.99 238 160.98 238 162 238 C161.44691161 240.76544193 160.56669268 243.00527297 159.4375 245.625 C157.86937931 248.69527755 157.86937931 248.69527755 158 251 C160.76894919 247.76955928 162.46635209 244.94366606 164 241 C164.66 240.67 165.32 240.34 166 240 C165.938125 238.081875 165.938125 238.081875 165.875 236.125 C165.8046875 233.9453125 165.8046875 233.9453125 166 232 C166.66 231.34 167.32 230.68 168 230 C168.99 230 169.98 230 171 230 C171.33 231.98 171.66 233.96 172 236 C173.32 236 174.64 236 176 236 C174.49776416 240.20626034 171.71449966 241.73900021 168 244 C169.32 244.66 170.64 245.32 172 246 C172 247.32 172 248.64 172 250 C168.71303767 250.79953138 167.28976808 251.09658936 164 250 C161.62161791 254.43964657 160.64234643 257.62498533 161.6875 262.625 C161.90986328 263.78902344 161.90986328 263.78902344 162.13671875 264.9765625 C163.25590447 267.59981229 164.43428366 267.91241311 167 269 C168.75 271.125 168.75 271.125 170 273 C170.4125 272.505 170.825 272.01 171.25 271.5 C173 270 173 270 177 270 C177 271.65 177 273.3 177 275 C176.195625 275.268125 175.39125 275.53625 174.5625 275.8125 C173.716875 276.204375 172.87125 276.59625 172 277 C170.91066457 279.94542544 170.91066457 279.94542544 170.625 282.9375 C169.97176193 286.13836656 169.29596003 287.70403997 167 290 C166.01 290 165.02 290 164 290 C164 290.66 164 291.32 164 292 C157.375 295 157.375 295 154 295 C154 295.99 154 296.98 154 298 C154.66386719 298.03738281 155.32773437 298.07476562 156.01171875 298.11328125 C165.3700363 298.8100319 165.3700363 298.8100319 169 302 C172 307.06896552 172 307.06896552 172 310 C173.0828125 309.5978125 173.0828125 309.5978125 174.1875 309.1875 C177 309 177 309 179.8125 310.875 C182.71801755 315.02573936 182.48111056 318.09267226 182 323 C180.68 323 179.36 323 178 323 C176.39274365 319.78548731 176.94251815 316.56387464 177 313 C176.01 313.33 175.02 313.66 174 314 C168.30499009 312.53974105 166.11852298 308.67778447 163 304 C160.80545319 303.42006301 160.80545319 303.42006301 158.375 303.3125 C157.14910156 303.21388672 157.14910156 303.21388672 155.8984375 303.11328125 C155.27195312 303.07589844 154.64546875 303.03851563 154 303 C154 303.66 154 304.32 154 305 C152.35 305.33 150.7 305.66 149 306 C149.0928125 307.60875 149.0928125 307.60875 149.1875 309.25 C148.99456691 313.10866187 148.60334924 314.28817788 146 317 C148.31 317 150.62 317 153 317 C153.33 318.32 153.66 319.64 154 321 C153.01 321.33 152.02 321.66 151 322 C151 322.66 151 323.32 151 324 C152.98 324.33 154.96 324.66 157 325 C157 325.99 157 326.98 157 328 C153.37 328.99 149.74 329.98 146 331 C146.33 332.093125 146.66 333.18625 147 334.3125 C148 338 148 338 148 341 C147.01 341 146.02 341 145 341 C145 341.99 145 342.98 145 344 C143.97519531 344.00257813 142.95039063 344.00515625 141.89453125 344.0078125 C134.57705866 343.87996726 134.57705866 343.87996726 127.99609375 346.40234375 C126.5849674 348.22105609 126.5849674 348.22105609 125 351 C124.01 351 123.02 351 122 351 C122 351.66 122 352.32 122 353 C122.66 353 123.32 353 124 353 C123.67 353.99 123.34 354.98 123 356 C121.02 356 119.04 356 117 356 C117.33 356.99 117.66 357.98 118 359 C118.06740865 360.56118428 118.08514456 362.1250252 118.0625 363.6875 C118.05347656 364.49574219 118.04445313 365.30398438 118.03515625 366.13671875 C118.01775391 367.05904297 118.01775391 367.05904297 118 368 C116.68 368 115.36 368 114 368 C114 367.34 114 366.68 114 366 C113.34 366 112.68 366 112 366 C110.83936396 361.74433453 111.23826608 358.3164922 112 354 C111.30132812 353.73445313 110.60265625 353.46890625 109.8828125 353.1953125 C108.51769531 352.66550781 108.51769531 352.66550781 107.125 352.125 C106.22007812 351.77695312 105.31515625 351.42890625 104.3828125 351.0703125 C102 350 102 350 100 348 C100 346.68 100 345.36 100 344 C95.26686692 346.79685137 93.00032991 349.28519586 90 354 C89.34 354 88.68 354 88 354 C88 354.66 88 355.32 88 356 C87.34 356 86.68 356 86 356 C85.67 356.99 85.34 357.98 85 359 C84.34 359 83.68 359 83 359 C82.690625 359.86625 82.690625 359.86625 82.375 360.75 C79.03959391 366.20793724 72.81079842 367.99519698 67.07421875 370.0703125 C64.82934187 370.81358323 64.82934187 370.81358323 64 373 C64.75023437 372.95359375 65.50046875 372.9071875 66.2734375 372.859375 C73.66273534 372.59879523 79.45884086 373.42972589 86 377 C86.66 377.66 87.32 378.32 88 379 C87.62793814 383.34072171 85.77048085 387.07415115 84 391 C83.34 391 82.68 391 82 391 C81.9175 392.11375 81.835 393.2275 81.75 394.375 C81 398 81 398 79.328125 399.17578125 C76.52614819 400.16775626 73.95974563 400.53502385 71 400.8125 C69.96875 400.92207031 68.9375 401.03164063 67.875 401.14453125 C64.4700721 400.9733596 63.36716934 400.41399247 61 398 C59.08591697 394.83167453 57.80502416 391.61416441 57 388 C58.125 384.5625 58.125 384.5625 60 382 C60.66 381.01 61.32 380.02 62 379 C61.360625 378.731875 60.72125 378.46375 60.0625 378.1875 C58 377 58 377 57 374 C48.00355473 372.0525342 40.58266627 374.37416805 32 377 C27.44665947 378.3736069 23.76993726 379.23267987 19 379 C19 378.34 19 377.68 19 377 C18.00484375 377.16757812 17.0096875 377.33515625 15.984375 377.5078125 C-12.92399387 381.58165987 -43.30409952 365.74899084 -65.77929688 349.14526367 C-68.33827018 347.21261876 -70.88074491 345.26236984 -73.39355469 343.27001953 C-74.89380023 342.08395915 -76.41875828 340.92934554 -77.9453125 339.77734375 C-78.62335938 339.19082031 -79.30140625 338.60429687 -80 338 C-80 337.34 -80 336.68 -80 336 C-80.639375 335.731875 -81.27875 335.46375 -81.9375 335.1875 C-84 334 -84 334 -85 331 C-85.556875 330.96261719 -86.11375 330.92523438 -86.6875 330.88671875 C-93.60272224 330.2909817 -100.0631294 329.37760918 -105.125 324.25 C-108.75557374 319.62299162 -110.57822158 314.03049332 -112.640625 308.5859375 C-115.54118208 300.93446796 -119.07444398 295.36844743 -124.390625 289.1015625 C-126 287 -126 287 -126 285 C-126.66 285 -127.32 285 -128 285 C-129.35439668 282.29120665 -129.06501451 279.99066732 -129 277 C-132.63 276.34 -136.26 275.68 -140 275 C-140.103125 276.093125 -140.20625 277.18625 -140.3125 278.3125 C-141 282 -141 282 -142.125 283.75 C-146.84751476 286.89834318 -151.30479126 288.64718281 -157 288 C-160.41911851 285.72058766 -160.10118729 285.59525083 -161 282 C-161.99 281.34 -162.98 280.68 -164 280 C-165.375 276.625 -165.375 276.625 -166 273 C-164.75 270.9375 -164.75 270.9375 -163 269 C-162.26919734 267.02253397 -161.60578253 265.01927511 -161 263 C-160 260 -160 260 -159 257 C-156.20676533 256.0068499 -154.89425331 255.62766896 -152 256 C-146.60144983 259.02589112 -141.34664091 262.70115189 -138 268 C-138 268.66 -138 269.32 -138 270 C-137.34 269.67 -136.68 269.34 -136 269 C-136.20496094 268.34773438 -136.40992188 267.69546875 -136.62109375 267.0234375 C-136.89050781 266.14945312 -137.15992188 265.27546875 -137.4375 264.375 C-137.70433594 263.51648438 -137.97117188 262.65796875 -138.24609375 261.7734375 C-139.65848261 256.57760284 -140.12232239 251.66628036 -140.09765625 246.2890625 C-140.09443359 245.04511719 -140.09121094 243.80117188 -140.08789062 242.51953125 C-140.07532227 240.59173828 -140.07532227 240.59173828 -140.0625 238.625 C-140.05798828 237.31660156 -140.05347656 236.00820313 -140.04882812 234.66015625 C-140.03707594 231.44005719 -140.02064543 228.2200523 -140 225 C-140.93972656 224.92652344 -140.93972656 224.92652344 -141.8984375 224.8515625 C-142.71570313 224.77679688 -143.53296875 224.70203125 -144.375 224.625 C-145.18710938 224.55539062 -145.99921875 224.48578125 -146.8359375 224.4140625 C-149 224 -149 224 -151 222 C-153.91440699 221.33278464 -153.91440699 221.33278464 -157 222 C-159.23084477 224.88788641 -159.23084477 224.88788641 -161 228 C-164.28976808 229.09658936 -165.71303767 228.79953138 -169 228 C-167.83385959 225.0316426 -167.05431409 224.03536732 -164.3125 222.25 C-161.78390906 220.30069667 -161.78390906 220.30069667 -161.8984375 217.96875 C-162.1598123 215.96252177 -162.57158428 213.97730333 -163 212 C-162.01 212 -161.02 212 -160 212 C-160.495 211.01 -160.495 211.01 -161 210 C-161.25860135 205.94857881 -161.30441554 204.45662331 -159 201 C-159.59296875 200.92007813 -160.1859375 200.84015625 -160.796875 200.7578125 C-165.07900981 199.2848796 -167.08518365 194.89846596 -169 191 C-169.45840249 188.42265537 -169.3353401 186.62683078 -169 184 C-165.04 182.02 -165.04 182.02 -161 180 C-161.3609375 179.45730469 -161.721875 178.91460937 -162.09375 178.35546875 C-162.78984375 177.28232422 -162.78984375 177.28232422 -163.5 176.1875 C-163.9640625 175.47980469 -164.428125 174.77210938 -164.90625 174.04296875 C-166 172 -166 172 -166 169 C-163.69 169.33 -161.38 169.66 -159 170 C-159 169.01 -159 168.02 -159 167 C-155.85375007 166.73781251 -154.38162983 166.75245633 -151.6875 168.5 C-150.8521875 169.2425 -150.8521875 169.2425 -150 170 C-149.71125 168.906875 -149.4225 167.81375 -149.125 166.6875 C-148 163 -148 163 -146 160 C-146.63555413 156.04544095 -147.19621072 153.73489306 -150.1875 151 C-153.80441859 149.7139845 -156.23371913 150.41557711 -160 151 C-163.875 150.1875 -163.875 150.1875 -167 149 C-167.33 148.34 -167.66 147.68 -168 147 C-168.99 146.67 -169.98 146.34 -171 146 C-171.226875 146.639375 -171.45375 147.27875 -171.6875 147.9375 C-173 150 -173 150 -175.625 150.75 C-176.40875 150.8325 -177.1925 150.915 -178 151 C-178.33 149.68 -178.66 148.36 -179 147 C-173.03730092 142.18860017 -173.03730092 142.18860017 -169.25 141.5 C-167 142 -167 142 -165.6875 143.56640625 C-164.05719704 145.27479323 -164.05719704 145.27479323 -161.546875 144.93359375 C-160.62390625 144.76988281 -159.7009375 144.60617188 -158.75 144.4375 C-152.9641816 143.7419789 -150.59428818 144.43708263 -146 148 C-143.5625 150.75 -143.5625 150.75 -142 153 C-141.72302909 148.93649516 -141.72302909 148.93649516 -142.984375 145.171875 C-144.29940885 142.35972569 -144.33631085 140.09513173 -144.375 137 C-144.40335938 135.96875 -144.43171875 134.9375 -144.4609375 133.875 C-143.89011077 130.31458923 -142.51317538 129.46311213 -140 127 C-139.73021061 124.62537209 -139.73021061 124.62537209 -140.25 122.25 C-140.37890625 121.45078125 -140.5078125 120.6515625 -140.640625 119.828125 C-140.75921875 119.22484375 -140.8778125 118.6215625 -141 118 C-139.34385343 117.61781233 -137.67542976 117.28604898 -136 117 C-135 118 -135 118 -134.9375 121.0625 C-134.958125 122.031875 -134.97875 123.00125 -135 124 C-133.02 124 -131.04 124 -129 124 C-129 123.34 -129 122.68 -129 122 C-128.01 122 -127.02 122 -126 122 C-126 122.66 -126 123.32 -126 124 C-123.69 123.01 -121.38 122.02 -119 121 C-119 117.37 -119 113.74 -119 110 C-120.98 110 -122.96 110 -125 110 C-124.9071875 111.423125 -124.9071875 111.423125 -124.8125 112.875 C-124.9053125 114.421875 -124.9053125 114.421875 -125 116 C-125.99 116.66 -126.98 117.32 -128 118 C-130.13273697 115.86726303 -129.35051177 110.55555286 -129.4296875 107.546875 C-129.59922138 103.48709789 -129.59922138 103.48709789 -131.5390625 100.0234375 C-132.02117187 99.68570313 -132.50328125 99.34796875 -133 99 C-132.505 97.515 -132.505 97.515 -132 96 C-131.34 96 -130.68 96 -130 96 C-129.67 89.4 -129.34 82.8 -129 76 C-126.29735568 74.64867784 -123.95335709 74.73533859 -120.9375 74.5625 C-115.41973583 74.18323018 -110.36169882 73.31845053 -105 72 C-104.34 72 -103.68 72 -103 72 C-99.84677162 66.47309136 -99.053746 61.37183115 -98.18359375 55.18945312 C-97.51098318 50.84840907 -96.7245742 47.58602045 -94 44 C-93.01 43.34 -92.02 42.68 -91 42 C-90.41407366 38.88389446 -90.41407366 38.88389446 -90.3125 35.375 C-90.209375 33.27125 -90.10625 31.1675 -90 29 C-82.08 28.67 -74.16 28.34 -66 28 C-65.34 24.7 -64.68 21.4 -64 18 C-63.06954414 15.63807359 -62.09528906 13.29014985 -61 11 C-60.01 11 -59.02 11 -58 11 C-57.77788884 12.93596892 -57.57277008 14.87389328 -57.375 16.8125 C-57.25898438 17.89144531 -57.14296875 18.97039062 -57.0234375 20.08203125 C-57 23 -57 23 -59 26 C-50.72170679 27.81476314 -42.73297377 28.34642327 -34.2734375 28.44921875 C-32.36928574 28.48182549 -32.36928574 28.48182549 -30.42666626 28.51509094 C-27.76601012 28.55873463 -25.10559069 28.59897806 -22.44482422 28.63305664 C-19.02933706 28.67704257 -15.61420488 28.73379095 -12.19898033 28.7946043 C-8.93221565 28.8516619 -5.66533265 28.90029406 -2.3984375 28.94921875 C-0.55492203 28.98036018 -0.55492203 28.98036018 1.32583618 29.01213074 C2.45145966 29.02577164 3.57708313 29.03941254 4.73681641 29.0534668 C5.73178131 29.06741989 6.72674622 29.08137299 7.75186157 29.0957489 C9.97030293 29.2551563 9.97030293 29.2551563 11 28 C10.32453125 27.82984375 9.6490625 27.6596875 8.953125 27.484375 C-0.26343847 24.98045313 -0.26343847 24.98045313 -3 21 C-3 20.01 -3 19.02 -3 18 C-2.30519531 18.14308594 -1.61039063 18.28617188 -0.89453125 18.43359375 C2.16693345 19.03266579 5.23455833 19.55514698 8.3125 20.0625 C9.91544922 20.32740234 9.91544922 20.32740234 11.55078125 20.59765625 C12.35902344 20.73042969 13.16726563 20.86320312 14 21 C13.01 17.535 13.01 17.535 12 14 C11.01 14.66 10.02 15.32 9 16 C4.90080096 15.70187643 1.54387321 15.12632393 -2 13 C-2.25 7.375 -2.25 7.375 0 4 C0 2.68 0 1.36 0 0 Z M4 4 C5 6 5 6 5 6 Z M7 6 C8 10 8 10 8 10 Z M2 8 C3 10 3 10 3 10 Z M27 13 C27 13.66 27 14.32 27 15 C29.29141286 15.05384521 31.58318188 15.09272087 33.875 15.125 C35.15117187 15.14820312 36.42734375 15.17140625 37.7421875 15.1953125 C41.08593338 15.35641524 41.08593338 15.35641524 43 13 C41.27185839 12.80327635 39.54240803 12.61803201 37.8125 12.4375 C36.84957031 12.33308594 35.88664063 12.22867188 34.89453125 12.12109375 C32.05766623 12.00241249 29.74576329 12.32234361 27 13 Z M-61 20 C-61 23 -61 23 -61 23 Z M-33 33 C-30.03272505 34.52755063 -27.21732778 35.59757879 -24 36.5 C-21.55365553 37.18616979 -19.35907877 37.80262154 -17.13012695 39.02783203 C-13.32606461 40.76396684 -9.30682858 40.36902563 -5.1875 40.375 C-3.87168945 40.41173828 -3.87168945 40.41173828 -2.52929688 40.44921875 C3.51699039 40.47635243 7.0151583 39.44110491 12 36 C12 35.34 12 34.68 12 34 C-3.01197026 33.16710922 -17.96591419 32.86461408 -33 33 Z M-36 37 C-35.01 38.485 -35.01 38.485 -34 40 C-31.56306689 40.36416047 -31.56306689 40.36416047 -28.875 40.1875 C-27.50988281 40.14689453 -27.50988281 40.14689453 -26.1171875 40.10546875 C-25.41851562 40.07066406 -24.71984375 40.03585938 -24 40 C-24 39.67 -24 39.34 -24 39 C-29.94 38.01 -29.94 38.01 -36 37 Z M-85 33 C-85.33 37.29 -85.66 41.58 -86 46 C-88.52458641 56.4770336 -93.54865061 65.34839338 -98.86328125 74.65234375 C-100.21789789 77.01529365 -100.21789789 77.01529365 -100 80 C-98.35 79.34 -96.7 78.68 -95 78 C-95 77.34 -95 76.68 -95 76 C-94.40703125 75.74476563 -93.8140625 75.48953125 -93.203125 75.2265625 C-90.78775462 73.88183502 -89.48788294 72.50785633 -87.75 70.375 C-87.22921875 69.74335938 -86.7084375 69.11171875 -86.171875 68.4609375 C-85.78515625 67.97882813 -85.3984375 67.49671875 -85 67 C-84.34 67.33 -83.68 67.66 -83 68 C-87.23303424 74.6934854 -91.32023453 79.70171613 -98 84 C-98.99 84.66 -99.98 85.32 -101 86 C-100.855625 86.54527344 -100.71125 87.09054688 -100.5625 87.65234375 C-98.10294305 97.64429388 -98.61334882 103.74241834 -102.8046875 113.21484375 C-104.27347051 116.63720415 -105.07062633 119.25680451 -105 123 C-104.36722681 124.28804499 -103.69549693 125.55721285 -103 126.8125 C-98.76054543 135.23313486 -101.36072713 147.06239921 -103 156 C-102.360625 156.350625 -101.72125 156.70125 -101.0625 157.0625 C-98.17836168 159.77184206 -98.2899178 162.15858911 -98 166 C-97.236875 165.690625 -96.47375 165.38125 -95.6875 165.0625 C-93.81210323 164.32106407 -91.91315348 163.63771783 -90 163 C-88.79117904 160.99983534 -88.79117904 160.99983534 -88 159 C-88.66 158.01 -89.32 157.02 -90 156 C-90.66 156 -91.32 156 -92 156 C-91.505 154.515 -91.505 154.515 -91 153 C-89.35 153.33 -87.7 153.66 -86 154 C-86 151.03 -86 148.06 -86 145 C-85.01 145 -84.02 145 -83 145 C-82.855625 146.216875 -82.71125 147.43375 -82.5625 148.6875 C-82.46710938 149.41710937 -82.37171875 150.14671875 -82.2734375 150.8984375 C-82.06059644 152.53427304 -81.86967049 154.17296557 -81.6875 155.8125 C-80.79705993 158.64571839 -79.39999407 159.35000408 -77 161 C-76.67 161.99 -76.34 162.98 -76 164 C-79.3 163.67 -82.6 163.34 -86 163 C-86.33 163.99 -86.66 164.98 -87 166 C-88.8125 166.5625 -88.8125 166.5625 -91 167 C-91.598125 167.350625 -92.19625 167.70125 -92.8125 168.0625 C-95.89828337 169.38497859 -98.68477932 169.12750849 -102 169 C-102.33 171.97 -102.66 174.94 -103 178 C-102.34 178 -101.68 178 -101 178 C-100.67 176.35 -100.34 174.7 -100 173 C-98.68 173.66 -97.36 174.32 -96 175 C-95.46697717 180.96985565 -96.23886423 184.26955506 -99.41796875 189.3359375 C-101 191 -101 191 -106 193 C-104.35 196.63 -102.7 200.26 -101 204 C-102.216875 204.020625 -103.43375 204.04125 -104.6875 204.0625 C-105.37199219 204.07410156 -106.05648437 204.08570313 -106.76171875 204.09765625 C-109 204 -109 204 -114 203 C-114.33 212.24 -114.66 221.48 -115 231 C-111.04 230.01 -111.04 230.01 -107 229 C-106.67 229.66 -106.34 230.32 -106 231 C-105.34 230.01 -104.68 229.02 -104 228 C-101.6875 227.5625 -101.6875 227.5625 -99 228 C-97.32476605 229.32255312 -95.65893182 230.65705519 -94 232 C-91.68091315 232.88115617 -89.42378208 233.42969834 -87 234 C-88.39646694 248.04804055 -88.39646694 248.04804055 -94 253 C-95.65661761 254.01656081 -97.32111559 255.02065076 -99 256 C-99.33 256.99 -99.66 257.98 -100 259 C-96.41672247 260.00217064 -96.41672247 260.00217064 -93 259 C-93 258.34 -93 257.68 -93 257 C-91.02 257.33 -89.04 257.66 -87 258 C-87 259.32 -87 260.64 -87 262 C-92.51058493 265.30635096 -98.74869666 265.12757762 -105 265 C-106.38908423 269.6633542 -107.54301016 274.31809011 -108.53515625 279.08203125 C-109 281 -109 281 -110 283 C-110.91143495 294.23518857 -108.93818397 302.18663118 -102 311 C-103.65 310.67 -105.3 310.34 -107 310 C-105.06424203 317.47858985 -105.06424203 317.47858985 -100 323 C-96.85518209 323.80315654 -96.85518209 323.80315654 -94 324 C-94.42152344 323.52949219 -94.84304687 323.05898438 -95.27734375 322.57421875 C-95.82519531 321.95160156 -96.37304688 321.32898438 -96.9375 320.6875 C-97.75541016 319.76517578 -97.75541016 319.76517578 -98.58984375 318.82421875 C-100 317 -100 317 -101 314 C-96.4967914 315.41529413 -94.19649522 317.57518369 -91 321 C-89.77796994 322.27769738 -88.54851961 323.54833087 -87.3125 324.8125 C-86.73113281 325.41707031 -86.14976562 326.02164062 -85.55078125 326.64453125 C-84.09230108 328.21936724 -84.09230108 328.21936724 -82 328 C-82 328.66 -82 329.32 -82 330 C-79.5349849 332.5476413 -76.72760756 334.73960091 -74 337 C-73.24074219 337.63421875 -72.48148438 338.2684375 -71.69921875 338.921875 C-43.72566922 361.81348673 -12.64283777 376.61973321 24 373 C24 372.34 24 371.68 24 371 C24.721875 371.103125 25.44375 371.20625 26.1875 371.3125 C30.1573703 370.8714033 31.50403068 368.99516318 34 366 C34 365.34 34 364.68 34 364 C33.37134033 364.06582275 32.74268066 364.13164551 32.0949707 364.19946289 C8.33573563 366.63123679 8.33573563 366.63123679 -2 365 C-3.61261719 364.75443359 -3.61261719 364.75443359 -5.2578125 364.50390625 C-31.94125835 359.61092814 -58.04169011 343.72048112 -76.73828125 324.18359375 C-77.95477876 322.77194453 -77.95477876 322.77194453 -80 323 C-80 322.34 -80 321.68 -80 321 C-81.52620876 319.49153848 -81.52620876 319.49153848 -83.4375 318 C-86.89830508 315.20338983 -86.89830508 315.20338983 -88 313 C-88.66 313 -89.32 313 -90 313 C-90 312.34 -90 311.68 -90 311 C-91.63843667 309.30557359 -93.31132257 307.64436131 -95 306 C-96.77971582 303.99650335 -98.52719884 301.9878397 -100.25 299.9375 C-100.69601563 299.42123047 -101.14203125 298.90496094 -101.6015625 298.37304688 C-103.86221928 295.6842354 -105.55801997 293.54433984 -106 290 C-101.9384283 292.86699179 -99.27344367 296.09334013 -96.4296875 300.09765625 C-95.0588459 301.92169959 -93.72362918 303.50463523 -92 305 C-91.34 305 -90.68 305 -90 305 C-89.66355469 305.82564453 -89.66355469 305.82564453 -89.3203125 306.66796875 C-84.84788015 314.56750163 -75.93588914 321.23990921 -69 327 C-68.12730469 327.72703125 -67.25460938 328.4540625 -66.35546875 329.203125 C-62.15656649 333.24842185 -62.15656649 333.24842185 -57 335 C-57 335.66 -57 336.32 -57 337 C-54.8637146 338.62028548 -54.8637146 338.62028548 -52.125 340.25 C-51.11566406 340.87261719 -50.10632813 341.49523437 -49.06640625 342.13671875 C-47.54853516 343.05904297 -47.54853516 343.05904297 -46 344 C-45.16339844 344.52207031 -44.32679688 345.04414063 -43.46484375 345.58203125 C-18.54918451 360.93655946 5.51905363 365.10854361 34.34765625 362.0234375 C37.29150848 361.19040007 37.29150848 361.19040007 38.87109375 358.0390625 C40.11607226 355.22785598 40.11607226 355.22785598 40 353 C40.928125 352.566875 40.928125 352.566875 41.875 352.125 C44.13325765 351.06279958 44.13325765 351.06279958 46 349 C46 348.01 46 347.02 46 346 C44.49476411 344.60901377 44.49476411 344.60901377 42.5625 343.4375 C39.0941704 341.18834081 39.0941704 341.18834081 38 339 C37.77377919 337.29636178 37.59111527 335.58671299 37.4375 333.875 C37.35371094 332.96492188 37.26992188 332.05484375 37.18359375 331.1171875 C37.12300781 330.41851562 37.06242188 329.71984375 37 329 C38.65 329.33 40.3 329.66 42 330 C42 331.98 42 333.96 42 336 C43.98 336.99 45.96 337.98 48 339 C47.91298828 337.35451172 47.91298828 337.35451172 47.82421875 335.67578125 C47.77730312 334.22139686 47.73180489 332.76696626 47.6875 331.3125 C47.6246582 330.2306543 47.6246582 330.2306543 47.56054688 329.12695312 C47.46395286 324.89613538 47.5848913 323.48961538 50.4375 320.125 C51.283125 319.42375 52.12875 318.7225 53 318 C54.29519995 315.83379456 54.29519995 315.83379456 55 314 C59.75 314.75 59.75 314.75 62 317 C63.90744816 317.38449053 63.90744816 317.38449053 66 317.5 C69.77777778 317.77777778 69.77777778 317.77777778 72 320 C72.125 322.625 72.125 322.625 72 325 C72.99 325.33 73.98 325.66 75 326 C75.73046875 328.06640625 75.73046875 328.06640625 76.1875 330.5625 C76.34605469 331.38878906 76.50460937 332.21507812 76.66796875 333.06640625 C76.77753906 333.70449219 76.88710938 334.34257812 77 335 C77.66 335 78.32 335 79 335 C79 336.65 79 338.3 79 340 C82.2671604 338.23895092 82.2671604 338.23895092 83.25 334.75 C83.99364606 331.03176971 83.88961453 328.64741958 83 325 C83.99 325 84.98 325 86 325 C86.33 327.31 86.66 329.62 87 332 C87.99 332.33 88.98 332.66 90 333 C90.03738281 332.26394531 90.07476562 331.52789062 90.11328125 330.76953125 C90.74542009 321.38660771 90.74542009 321.38660771 94 317 C94 316.34 94 315.68 94 315 C94.9590625 314.566875 94.9590625 314.566875 95.9375 314.125 C98.15206079 313.17176549 98.15206079 313.17176549 99 311 C97.88625 310.566875 96.7725 310.13375 95.625 309.6875 C92 308 92 308 90 305 C90 304.01 90 303.02 90 302 C92.97 301.34 95.94 300.68 99 300 C98.01 296.7 97.02 293.4 96 290 C97.32 289.34 98.64 288.68 100 288 C100.38218767 286.34385343 100.71395102 284.67542976 101 283 C102.3125 281.1875 102.3125 281.1875 104 280 C105.32 280 106.64 280 108 280 C108 281.98 108 283.96 108 286 C108.66 286 109.32 286 110 286 C110.33 284.68 110.66 283.36 111 282 C111.66 282 112.32 282 113 282 C113 280.68 113 279.36 113 278 C112.01 278 111.02 278 110 278 C109.66259915 276.08404518 109.33023588 274.16720278 109 272.25 C108.814375 271.18265625 108.62875 270.1153125 108.4375 269.015625 C108 266 108 266 108 262 C107.030625 261.566875 106.06125 261.13375 105.0625 260.6875 C102 259 102 259 101 256 C101.61488281 256.11859375 102.22976563 256.2371875 102.86328125 256.359375 C105.2814065 256.74504091 107.55007689 257.03965703 110 257 C111.62831762 255.19038423 111.62831762 255.19038423 113 253 C115.64687122 252.02735455 118.21930912 251.54702116 121 251 C118.79020692 253.81939117 116.59937954 256.53058944 114 259 C115.32 259.33 116.64 259.66 118 260 C118 260.66 118 261.32 118 262 C117.030625 262.144375 116.06125 262.28875 115.0625 262.4375 C112.13513227 262.67562341 112.13513227 262.67562341 111 264 C111.36747494 269.1761903 111.36747494 269.1761903 113 274 C113.99 274 114.98 274 116 274 C116.33 273.34 116.66 272.68 117 272 C120.3 272 123.6 272 127 272 C124 275 124 275 121 277 C121.33 278.32 121.66 279.64 122 281 C125.63 281.33 129.26 281.66 133 282 C133.33 282.99 133.66 283.98 134 285 C134.66 285 135.32 285 136 285 C140.18252936 280.11960158 141.75747103 276.55020487 141.80639648 270.06689453 C141.83053084 269.29472658 141.8546652 268.52255863 141.87953091 267.72699165 C141.94919529 265.15098392 141.97842678 262.57683854 142 260 C142.01759306 258.64761356 142.01759306 258.64761356 142.03554153 257.26790619 C142.12243098 250.15487274 142.11518114 243.04310327 142.09765625 235.9296875 C142.09578612 233.66854891 142.09436504 231.4074099 142.09336853 229.14627075 C142.08959016 223.25773964 142.07980109 217.36923406 142.06866455 211.48071289 C142.05834857 205.44678085 142.05384931 199.4128446 142.04882812 193.37890625 C142.03817358 181.58592642 142.02115498 169.79296535 142 158 C139.03 158 136.06 158 133 158 C132.67 156.02 132.34 154.04 132 152 C135.3 152 138.6 152 142 152 C141.67 146.72 141.34 141.44 141 136 C137.83417375 136.78036507 137.83417375 136.78036507 135.8125 139.4375 C132.211357 142.7185414 129.73057382 143.11802861 125 144 C125 143.01 125 142.02 125 141 C126.7015625 140.5978125 126.7015625 140.5978125 128.4375 140.1875 C129.613125 139.795625 130.78875 139.40375 132 139 C132.33 138.01 132.66 137.02 133 136 C134.5625 134.3125 134.5625 134.3125 136 133 C135.12355567 130.82271927 135.12355567 130.82271927 133 129 C129.97465051 128.63524155 127.03336186 128.77106703 124 129 C124.391875 128.278125 124.78375 127.55625 125.1875 126.8125 C126.34579821 123.98200638 126.34579821 123.98200638 124.75 121.4375 C124.1725 120.633125 123.595 119.82875 123 119 C121.2214996 115.9630661 120.74238814 113.62464206 120.5625 110.125 C120.10015623 104.70441787 118.58580881 101.11441175 115.3125 96.75 C112.06702168 94.29396236 108.95690837 93.9081429 105 93 C104.67 92.34 104.34 91.68 104 91 C110.33367031 91.2503427 115.11600458 91.57032974 120 96 C123.12699194 99.83226458 125.15379944 103.27128412 125.5625 108.25 C126.05698569 112.48844879 126.79448692 113.37730748 130 116 C130.99 117.485 130.99 117.485 132 119 C138.12503918 110.37521193 141.9197914 100.6695802 141 90 C138.24686025 88.48762503 135.97108165 87.75234924 132.875 87.3125 C122.70841077 85.12559821 115.53201556 77.39680934 110 69 C106.59432912 63.11102743 104.72920081 57.29410136 103.36328125 50.640625 C103.10458252 49.39313477 102.84588379 48.14564453 102.5793457 46.86035156 C102.38816162 45.91643555 102.19697754 44.97251953 102 44 C89.36055643 43.97680363 76.72111795 43.95904772 64.08165741 43.94818783 C58.21230821 43.94297496 52.34297361 43.93590632 46.47363281 43.92456055 C40.80670529 43.91367492 35.13979179 43.90771113 29.47285461 43.90512276 C27.31358113 43.90327874 25.15430839 43.89967785 22.99504089 43.89426994 C19.96477618 43.8869842 16.93456898 43.88601224 13.90429688 43.88647461 C13.01668671 43.88287933 12.12907654 43.87928406 11.21456909 43.87557983 C7.29412053 43.88202957 3.49518407 44.00708722 -0.39245605 44.53443909 C-3.69419764 44.96053558 -6.30508224 44.76923411 -9.5703125 44.2578125 C-15.01457458 43.68012553 -20.53197047 43.93088165 -26 44 C-25.01 47.465 -25.01 47.465 -24 51 C-23.34 51 -22.68 51 -22 51 C-21.01 54.96 -21.01 54.96 -20 59 C-20.99 59 -21.98 59 -23 59 C-23.23203125 58.42378906 -23.4640625 57.84757812 -23.703125 57.25390625 C-25.31950429 54.44471694 -27.20626283 52.93780241 -29.75 50.9375 C-30.59046875 50.26589844 -31.4309375 49.59429687 -32.296875 48.90234375 C-37.79745596 45.03127015 -42.09637269 43.55668309 -48.8046875 43.70703125 C-49.5286673 43.71127609 -50.25264709 43.71552094 -50.99856567 43.71989441 C-53.29110287 43.73657028 -55.58273246 43.77419919 -57.875 43.8125 C-59.43748722 43.82756129 -60.99998835 43.84124716 -62.5625 43.85351562 C-66.37534505 43.88643707 -70.18751911 43.93813998 -74 44 C-74.50512244 45.60256108 -75.00391627 47.20711792 -75.5 48.8125 C-75.7784375 49.70582031 -76.056875 50.59914063 -76.34375 51.51953125 C-77.12788351 54.05573395 -77.12788351 54.05573395 -77 57 C-77.66 56.67 -78.32 56.34 -79 56 C-78.91621094 55.08476562 -78.83242187 54.16953125 -78.74609375 53.2265625 C-78.64425781 52.03804687 -78.54242188 50.84953125 -78.4375 49.625 C-78.33308594 48.44164062 -78.22867188 47.25828125 -78.12109375 46.0390625 C-77.75846404 43.08101369 -77.75846404 43.08101369 -79 41 C-67.45 40.67 -55.9 40.34 -44 40 C-44.66 37.69 -45.32 35.38 -46 33 C-58.87 33 -71.74 33 -85 33 Z M-92 51 C-92.33 52.65 -92.66 54.3 -93 56 C-92.34 55.34 -91.68 54.68 -91 54 C-91.33 53.01 -91.66 52.02 -92 51 Z M-112 78 C-114.22574335 78.22451458 -116.45581519 78.40782878 -118.6875 78.5625 C-120.45673828 78.68818359 -120.45673828 78.68818359 -122.26171875 78.81640625 C-123.16535156 78.87699219 -124.06898438 78.93757813 -125 79 C-124.67 80.32 -124.34 81.64 -124 83 C-121.03 82.34 -118.06 81.68 -115 81 C-114.67 82.65 -114.34 84.3 -114 86 C-111.05908413 85.81584568 -111.05908413 85.81584568 -108 85 C-105.83101819 82.14088761 -106 80.71556422 -106 77 C-109.05270463 76.84188612 -109.05270463 76.84188612 -112 78 Z M-107 88 C-109.31 88.66 -111.62 89.32 -114 90 C-114.08126087 92.08268593 -114.13930839 94.16628658 -114.1875 96.25 C-114.22230469 97.41015625 -114.25710937 98.5703125 -114.29296875 99.765625 C-114.24958631 103.39692009 -114.24958631 103.39692009 -111 107 C-111.66 102.71 -112.32 98.42 -113 94 C-112.01 94 -111.02 94 -110 94 C-110 94.66 -110 95.32 -110 96 C-108.35 95.67 -106.7 95.34 -105 95 C-104.67 94.01 -104.34 93.02 -104 92 C-105.37168238 89.80961577 -105.37168238 89.80961577 -107 88 Z M-125 92 C-125 94.64 -125 97.28 -125 100 C-122.35261084 101.4606285 -121.10551666 102 -118 102 C-118.34897661 97.24862512 -118.34897661 97.24862512 -120.375 93.0625 C-122.0948968 91.72637532 -122.0948968 91.72637532 -125 92 Z M-108 102 C-108.74751373 105.48254713 -108.74751373 105.48254713 -109 109 C-109.33 109.66 -109.66 110.32 -110 111 C-109.67 111.66 -109.34 112.32 -109 113 C-105.66385983 112.27474779 -105.66385983 112.27474779 -104.3125 108.75 C-103.16055679 105.45873369 -102.68974652 103.4127883 -103 100 C-105.17201059 100 -106.25550889 100.74614701 -108 102 Z M140 115 C137.41116566 119.79180448 137.41116566 119.79180448 136 125 C136.33 125.66 136.66 126.32 137 127 C137.66 127 138.32 127 139 127 C141.13586678 123.79619983 141.23132175 122.98060033 141.125 119.3125 C141.10695313 118.50425781 141.08890625 117.69601563 141.0703125 116.86328125 C141.04710937 116.24839844 141.02390625 115.63351563 141 115 C140.67 115 140.34 115 140 115 Z M126 117 C126.33 118.32 126.66 119.64 127 121 C127.33 119.68 127.66 118.36 128 117 C127.34 117 126.68 117 126 117 Z M-112 120 C-111 122 -111 122 -111 122 Z M-113 122 C-114.485 123.485 -114.485 123.485 -116 125 C-120.455 126.485 -120.455 126.485 -125 128 C-125 135.26 -125 142.52 -125 150 C-123.02 150.99 -123.02 150.99 -121 152 C-120.25 154.625 -120.25 154.625 -120 157 C-119.34 157 -118.68 157 -118 157 C-118 147.1 -118 137.2 -118 127 C-117.01 127 -116.02 127 -115 127 C-115 129.31 -115 131.62 -115 134 C-112.97649676 130.96474514 -112.67875982 129.80573798 -112.375 126.3125 C-112.30023438 125.50425781 -112.22546875 124.69601563 -112.1484375 123.86328125 C-112.09945312 123.24839844 -112.05046875 122.63351563 -112 122 C-112.33 122 -112.66 122 -113 122 Z M-108 125 C-112.77755115 136.1810756 -112.23833724 148.08313823 -112 160 C-111.34 160 -110.68 160 -110 160 C-105.92470345 153.26690136 -105.43661276 148.0333676 -105.625 140.25 C-105.62628906 139.22261719 -105.62757813 138.19523438 -105.62890625 137.13671875 C-105.65524576 130.79199394 -105.65524576 130.79199394 -108 125 Z M-136 130 C-135.34 131.65 -134.68 133.3 -134 135 C-136.31 134.67 -138.62 134.34 -141 134 C-139.9611908 140.1112924 -138.84269722 146.07704464 -137 152 C-136.566875 151.360625 -136.13375 150.72125 -135.6875 150.0625 C-134 148 -134 148 -131 147 C-130.67 147.66 -130.34 148.32 -130 149 C-129.25194283 141.97360585 -128.86205046 135.06608191 -129 128 C-131.35287614 128 -133.79373224 129.24893012 -136 130 Z M146 145 C146 146.98 146 148.96 146 151 C146.99 151.33 147.98 151.66 149 152 C148.65772428 149.02934491 148.65772428 149.02934491 148 146 C147.34 145.67 146.68 145.34 146 145 Z M-133 153 C-133.66 155.97 -134.32 158.94 -135 162 C-136.27875 162.0825 -137.5575 162.165 -138.875 162.25 C-142.18839435 162.59201787 -142.18839435 162.59201787 -144.5625 164.8125 C-145.04907897 167.24539483 -144.82837651 168.68054578 -144 171 C-143.01 171 -142.02 171 -141 171 C-140.34 172.65 -139.68 174.3 -139 176 C-138.34 176 -137.68 176 -137 176 C-135.19380477 171.53763531 -134.88341499 168.68965706 -136 164 C-135.01 164 -134.02 164 -133 164 C-133 163.34 -133 162.68 -133 162 C-130.36 162 -127.72 162 -125 162 C-124.34 160.02 -123.68 158.04 -123 156 C-124.05630262 154.35429841 -124.05630262 154.35429841 -126 153 C-129.62535976 152.7496423 -129.62535976 152.7496423 -133 153 Z M146 158 C145.67 161.63 145.34 165.26 145 169 C146.32 169.33 147.64 169.66 149 170 C149.12375 170.66 149.2475 171.32 149.375 172 C150.14520538 175.69698583 151.06950663 179.34005942 152 183 C153.32 182.67 154.64 182.34 156 182 C156 181.34 156 180.68 156 180 C155.01 180 154.02 180 153 180 C153.04125 178.700625 153.0825 177.40125 153.125 176.0625 C153.11574084 170.19219137 152.50126792 164.56466603 149.5 159.4375 C148.10560331 157.76936488 148.10560331 157.76936488 146 158 Z M-106 159 C-106.66 160.65 -107.32 162.3 -108 164 C-106.68 163.34 -105.36 162.68 -104 162 C-104.66 161.01 -105.32 160.02 -106 159 Z M-114 163 C-114.33 164.98 -114.66 166.96 -115 169 C-114.01 169.495 -114.01 169.495 -113 170 C-112.32041397 167.60280568 -112.32041397 167.60280568 -112 165 C-112.66 164.34 -113.32 163.68 -114 163 Z M-123 164 C-123.20625 165.11375 -123.4125 166.2275 -123.625 167.375 C-125 171 -125 171 -127.125 172.12890625 C-129.40470821 172.86624937 -131.65864178 173.494151 -134 174 C-133.01 174.33 -132.02 174.66 -131 175 C-131.33 176.32 -131.66 177.64 -132 179 C-130.68 179.33 -129.36 179.66 -128 180 C-128.66 178.02 -129.32 176.04 -130 174 C-128.96875 174.268125 -127.9375 174.53625 -126.875 174.8125 C-122.72129282 175.03718739 -122.72129282 175.03718739 -119.5625 172.9375 C-116.70784202 170.22687215 -116.70784202 170.22687215 -116.625 166.6875 C-116.74875 165.800625 -116.8725 164.91375 -117 164 C-120 162.66666667 -120 162.66666667 -123 164 Z M-117 173 C-117 176 -117 176 -117 176 Z M145 173 C145 206 145 239 145 273 C149.83185589 265.75221617 149.26644876 258.31506762 148 250 C147.67 249.34 147.34 248.68 147 248 C150 249 150 249 152 251 C152.07661597 243.81419778 152.12883556 236.6285025 152.16479492 229.44238281 C152.17979978 227.0022386 152.20021015 224.56212098 152.22631836 222.12207031 C152.26306851 218.59693808 152.27981002 215.07216512 152.29296875 211.546875 C152.30845261 210.4713739 152.32393646 209.3958728 152.33988953 208.28778076 C152.34132417 201.70208214 151.48776302 195.89332409 149.7104187 189.54782104 C148.59648996 185.55286556 148.0923208 181.49855666 147.52734375 177.3984375 C147.18818058 174.82900297 147.18818058 174.82900297 145 173 Z M-159 175 C-158.01 176.485 -158.01 176.485 -157 178 C-155.02252878 178.36297936 -155.02252878 178.36297936 -152.875 178.1875 C-151.59625 178.125625 -150.3175 178.06375 -149 178 C-149.33 177.34 -149.66 176.68 -150 176 C-152.12576782 175.53348793 -152.12576782 175.53348793 -154.5625 175.375 C-155.38878906 175.30023438 -156.21507812 175.22546875 -157.06640625 175.1484375 C-157.70449219 175.09945312 -158.34257812 175.05046875 -159 175 Z M-120 176 C-120 176.99 -120 177.98 -120 179 C-119.34 178.67 -118.68 178.34 -118 178 C-118 177.34 -118 176.68 -118 176 C-118.66 176 -119.32 176 -120 176 Z M-108 175 C-108.99 175.99 -109.98 176.98 -111 178 C-110.01 178 -109.02 178 -108 178 C-108 177.01 -108 176.02 -108 175 Z M-99 179 C-98 181 -98 181 -98 181 Z M-140 180 C-139.01 180.99 -138.02 181.98 -137 183 C-136.01 182.34 -135.02 181.68 -134 181 C-135.06645115 179.70366379 -135.06645115 179.70366379 -137.5625 179.9375 C-138.366875 179.958125 -139.17125 179.97875 -140 180 Z M-145 181 C-145.33 181.66 -145.66 182.32 -146 183 C-145.34 183 -144.68 183 -144 183 C-143.67 183.66 -143.34 184.32 -143 185 C-143.33 183.68 -143.66 182.36 -144 181 C-144.33 181 -144.66 181 -145 181 Z M-115.5625 185.5625 C-116.366875 186.366875 -117.17125 187.17125 -118 188 C-118 188.33 -118 188.66 -118 189 C-110.3909906 190.30241083 -110.3909906 190.30241083 -103 189 C-101.28902472 186.47351314 -100.09960952 183.83957989 -99 181 C-105.10066205 181 -110.72027925 181.58290765 -115.5625 185.5625 Z M-162 184 C-162 184.33 -162 184.66 -162 185 C-158.37 185 -154.74 185 -151 185 C-150.67 184.34 -150.34 183.68 -150 183 C-154.13574827 182.9015298 -157.93631321 183.22596442 -162 184 Z M-148 186 C-148.99 186.66 -149.98 187.32 -151 188 C-154.13671875 188.1953125 -154.13671875 188.1953125 -157.6875 188.125 C-158.86699219 188.10695313 -160.04648438 188.08890625 -161.26171875 188.0703125 C-162.16535156 188.04710937 -163.06898438 188.02390625 -164 188 C-163.67 188.66 -163.34 189.32 -163 190 C-160.64400765 190.46751788 -160.64400765 190.46751788 -157.9375 190.625 C-157.01839844 190.69976562 -156.09929687 190.77453125 -155.15234375 190.8515625 C-154.44207031 190.90054688 -153.73179687 190.94953125 -153 191 C-152.67 192.65 -152.34 194.3 -152 196 C-147.70309161 193.66267575 -147.70309161 193.66267575 -145.125 189.75 C-145.08375 189.1725 -145.0425 188.595 -145 188 C-145.99 187.34 -146.98 186.68 -148 186 Z M-143 191 C-143 191.66 -143 192.32 -143 193 C-142.34 193 -141.68 193 -141 193 C-141 193.66 -141 194.32 -141 195 C-140.34 195 -139.68 195 -139 195 C-139.33 193.68 -139.66 192.36 -140 191 C-140.99 191 -141.98 191 -143 191 Z M-134 191 C-134.33 192.65 -134.66 194.3 -135 196 C-132.525 196.99 -132.525 196.99 -130 198 C-129.30840599 196.15274948 -129.30840599 196.15274948 -129 194 C-129.66 193.01 -130.32 192.02 -131 191 C-131.99 191 -132.98 191 -134 191 Z M-125 191 C-124.67 191.99 -124.34 192.98 -124 194 C-123.01 193.01 -122.02 192.02 -121 191 C-122.32 191 -123.64 191 -125 191 Z M-161 194 C-160.67 195.32 -160.34 196.64 -160 198 C-158.35 198 -156.7 198 -155 198 C-155.33 196.68 -155.66 195.36 -156 194 C-157.65 194 -159.3 194 -161 194 Z M-114 194 C-114.46306301 197.94030828 -114.46306301 197.94030828 -112.25 199.8125 C-110.08516436 201.23504687 -110.08516436 201.23504687 -107.75 200.6875 C-106.88375 200.3471875 -106.88375 200.3471875 -106 200 C-107.485 197.03 -107.485 197.03 -109 194 C-110.65 194 -112.3 194 -114 194 Z M-148 196 C-148.66 197.65 -149.32 199.3 -150 201 C-149.34 201 -148.68 201 -148 201 C-147.8453125 202.1446875 -147.8453125 202.1446875 -147.6875 203.3125 C-146.92725789 206.28435553 -146.39473352 207.16118676 -144 209 C-141.71669899 209.36146457 -141.71669899 209.36146457 -139.3125 209.1875 C-138.10013672 209.14689453 -138.10013672 209.14689453 -136.86328125 209.10546875 C-136.24839844 209.07066406 -135.63351563 209.03585937 -135 209 C-134.67 208.01 -134.34 207.02 -134 206 C-133.34 206 -132.68 206 -132 206 C-131.67 204.35 -131.34 202.7 -131 201 C-131.70125 201.825 -132.4025 202.65 -133.125 203.5 C-136 206 -136 206 -139.125 206.5 C-142 206 -142 206 -143.9375 204.8125 C-145 203 -145 203 -144.8125 200.4375 C-144 198 -144 198 -142 196 C-143.98 196 -145.96 196 -148 196 Z M-123 196 C-123 197.32 -123 198.64 -123 200 C-123.99 200.495 -123.99 200.495 -125 201 C-124.34 202.65 -123.68 204.3 -123 206 C-120.77273281 202.71608381 -120.77273281 202.71608381 -120 199 C-121.35444301 197.22809091 -121.35444301 197.22809091 -123 196 Z M-156 203 C-158.33391203 205.78114056 -158.33391203 205.78114056 -157.625 208.6875 C-157.41875 209.450625 -157.2125 210.21375 -157 211 C-156.34 210.01 -155.68 209.02 -155 208 C-154.01 207.67 -153.02 207.34 -152 207 C-152.33 208.65 -152.66 210.3 -153 212 C-152.34 212 -151.68 212 -151 212 C-150.896875 212.7425 -150.79375 213.485 -150.6875 214.25 C-149.95746496 217.17014018 -148.93210602 218.73187554 -147 221 C-141.72250715 220.46148032 -137.74354436 219.22656164 -133 217 C-136.15506142 216.06380187 -138.96586502 215.8942877 -142.25 215.9375 C-143.8175 215.958125 -145.385 215.97875 -147 216 C-148.32 212.04 -149.64 208.08 -151 204 C-152.65 203.67 -154.3 203.34 -156 203 Z M-128 203 C-127 205 -127 205 -127 205 Z M-125 206 C-125 206.99 -125 207.98 -125 209 C-124.34 209 -123.68 209 -123 209 C-123 208.01 -123 207.02 -123 206 C-123.66 206 -124.32 206 -125 206 Z M-120 206 C-119.67 206.99 -119.34 207.98 -119 209 C-118.67 208.01 -118.34 207.02 -118 206 C-118.66 206 -119.32 206 -120 206 Z M156 206 C157 208 157 208 157 208 Z M-143 212 C-143.33 212.66 -143.66 213.32 -144 214 C-142.68 213.34 -141.36 212.68 -140 212 C-140.99 212 -141.98 212 -143 212 Z M-123 212 C-124.35712166 213.55855981 -124.35712166 213.55855981 -125.625 215.5 C-126.07101563 216.1496875 -126.51703125 216.799375 -126.9765625 217.46875 C-127.31429687 217.9740625 -127.65203125 218.479375 -128 219 C-124.91153919 219.31900893 -124.91153919 219.31900893 -122.8125 217.1875 C-120.68099107 215.08846081 -120.68099107 215.08846081 -121 212 C-121.66 212 -122.32 212 -123 212 Z M156 215 C156 220.28 156 225.56 156 231 C158.14680135 226.70639731 158.12524159 225.35222258 157.625 220.75 C157.51414062 219.67234375 157.40328125 218.5946875 157.2890625 217.484375 C157.19367188 216.66453125 157.09828125 215.8446875 157 215 C156.67 215 156.34 215 156 215 Z M-121.5 219.4375 C-122.325 220.283125 -123.15 221.12875 -124 222 C-124.33 222.33 -124.66 222.66 -125 223 C-125.08700342 224.63472882 -125.10701063 226.27314055 -125.09765625 227.91015625 C-125.09443359 228.89951172 -125.09121094 229.88886719 -125.08789062 230.90820312 C-125.07951172 231.94912109 -125.07113281 232.99003906 -125.0625 234.0625 C-125.05798828 235.10728516 -125.05347656 236.15207031 -125.04882812 237.22851562 C-125.03699913 239.8190666 -125.02051689 242.40950559 -125 245 C-124.67 245 -124.34 245 -124 245 C-123.7525 243.7625 -123.505 242.525 -123.25 241.25 C-122.65872086 238.2936043 -122.28324391 237.24032817 -119.9375 235.25 C-117.1288324 231.9883215 -117.56246529 228.83248638 -117.75 224.75 C-117.76804687 224.00492188 -117.78609375 223.25984375 -117.8046875 222.4921875 C-117.85164351 220.66090299 -117.92338348 218.83028351 -118 217 C-119.46260322 216.88364998 -119.46260322 216.88364998 -121.5 219.4375 Z M-131 224 C-135.56589326 237.41231144 -137.13489727 250.34920313 -132 264 C-131.02378065 265.3508418 -130.02668778 266.68710626 -129 268 C-128.86876818 253.29597903 -129.15159138 238.68049912 -130 224 C-130.33 224 -130.66 224 -131 224 Z M-103 231 C-102.67 232.65 -102.34 234.3 -102 236 C-101.01 236.33 -100.02 236.66 -99 237 C-98.3185177 235.10820797 -98.3185177 235.10820797 -98 233 C-98.66 232.34 -99.32 231.68 -100 231 C-100.99 231 -101.98 231 -103 231 Z M-110 232 C-110.33 232.66 -110.66 233.32 -111 234 C-110.01 233.67 -109.02 233.34 -108 233 C-108.66 232.67 -109.32 232.34 -110 232 Z M-114 235 C-114.99 236.485 -114.99 236.485 -116 238 C-115.67 238.99 -115.34 239.98 -115 241 C-114.34 240.67 -113.68 240.34 -113 240 C-113 238.35 -113 236.7 -113 235 C-113.33 235 -113.66 235 -114 235 Z M-121 241 C-119.90931332 244.77545388 -119.0916909 247.47043472 -116 250 C-115.34 249.34 -114.68 248.68 -114 248 C-114.639375 247.401875 -115.27875 246.80375 -115.9375 246.1875 C-118 244 -118 244 -119 241 C-119.66 241 -120.32 241 -121 241 Z M-94 241 C-94.28875 241.61875 -94.5775 242.2375 -94.875 242.875 C-96 245 -96 245 -98 247 C-97.01 247 -96.02 247 -95 247 C-94.67 247.66 -94.34 248.32 -94 249 C-92.3516367 247.24755753 -92.3516367 247.24755753 -91 245 C-91.21717352 242.79199472 -91.21717352 242.79199472 -92 241 C-92.66 241 -93.32 241 -94 241 Z M-102 242 C-102.99 243.485 -102.99 243.485 -104 245 C-103.01 245 -102.02 245 -101 245 C-101.33 244.01 -101.66 243.02 -102 242 Z M-99 247 C-99.33 248.32 -99.66 249.64 -100 251 C-99.34 249.68 -98.68 248.36 -98 247 C-98.33 247 -98.66 247 -99 247 Z M-102 251 C-102.33 251.66 -102.66 252.32 -103 253 C-102.01 252.67 -101.02 252.34 -100 252 C-100.66 251.67 -101.32 251.34 -102 251 Z M-113 255 C-112.67 256.32 -112.34 257.64 -112 259 C-109.08347826 259.16681109 -109.08347826 259.16681109 -106 259 C-105.34 258.34 -104.68 257.68 -104 257 C-104.33 256.34 -104.66 255.68 -105 255 C-107.64 255 -110.28 255 -113 255 Z M-127 260 C-126.67 260.66 -126.34 261.32 -126 262 C-125.34 262 -124.68 262 -124 262 C-123.67 263.65 -123.34 265.3 -123 267 C-123.99 267.495 -123.99 267.495 -125 268 C-124.01 268 -123.02 268 -122 268 C-121.79029441 263.85906302 -121.79029441 263.85906302 -123 260 C-124.32 260 -125.64 260 -127 260 Z M-113 262 C-112.34 262.66 -111.68 263.32 -111 264 C-111 263.34 -111 262.68 -111 262 C-111.66 262 -112.32 262 -113 262 Z M156 262 C155.98541748 262.61520508 155.97083496 263.23041016 155.95581055 263.86425781 C155.88119423 266.66012854 155.7845802 269.45482287 155.6875 272.25 C155.66494141 273.21808594 155.64238281 274.18617188 155.61914062 275.18359375 C155.58369141 276.11816406 155.54824219 277.05273438 155.51171875 278.015625 C155.48553467 278.87446289 155.45935059 279.73330078 155.43237305 280.61816406 C154.91804217 283.45148535 153.7767311 284.77571294 152 287 C151.27954633 290.15118325 151.27954633 290.15118325 151 293 C156.06398064 290.78310181 161.07895682 288.52361189 166 286 C165.34 285.38125 164.68 284.7625 164 284.125 C162 282 162 282 162 280 C163.32 279.34 164.64 278.68 166 278 C164.18182939 273.27275642 162.66249225 270.54434734 159 267 C157.75 264.25 157.75 264.25 157 262 C156.67 262 156.34 262 156 262 Z M-156 263 C-156 263.99 -156 264.98 -156 266 C-155.34 266 -154.68 266 -154 266 C-154.33 265.01 -154.66 264.02 -155 263 C-155.33 263 -155.66 263 -156 263 Z M-149 264 C-149.33 264.99 -149.66 265.98 -150 267 C-152.5625 268.6875 -152.5625 268.6875 -155 270 C-154.54086322 273.48599332 -154.54086322 273.48599332 -153 277 C-149.48599332 278.54086322 -149.48599332 278.54086322 -146 279 C-144.18984162 275.92694042 -143.75776347 273.91705555 -144.125 270.375 C-144.18945312 269.59898437 -144.25390625 268.82296875 -144.3203125 268.0234375 C-144.8258979 265.80549854 -144.8258979 265.80549854 -147.0546875 264.7265625 C-148.01761719 264.36691406 -148.01761719 264.36691406 -149 264 Z M151 270 C148.60457417 274.58154261 146.49170266 279.0276578 145 284 C145.99 284.99 146.98 285.98 148 287 C152.67289916 281.59696035 152.44534366 276.95230941 152 270 C151.67 270 151.34 270 151 270 Z M-116.625 276.0625 C-118.68369484 278.96338818 -118.19557733 281.54480057 -118 285 C-116.46478044 282.69717067 -115.41642091 280.82137765 -114.375 278.3125 C-113.92125 277.219375 -113.4675 276.12625 -113 275 C-115.04459814 274.81758355 -115.04459814 274.81758355 -116.625 276.0625 Z M-161 276 C-160 278 -160 278 -160 278 Z M-156 280 C-156 281.32 -156 282.64 -156 284 C-155.34 284 -154.68 284 -154 284 C-154 282.68 -154 281.36 -154 280 C-154.66 280 -155.32 280 -156 280 Z M117 282 C117 283.98 117 285.96 117 288 C117.66 286.68 118.32 285.36 119 284 C118.34 283.34 117.68 282.68 117 282 Z M103 285 C101.70756464 289.1196377 100.73747375 292.66831683 101 297 C101.66 297 102.32 297 103 297 C103 297.66 103 298.32 103 299 C106.47998507 302.63633539 106.47998507 302.63633539 111 304 C110.88490339 302.58249437 110.75746342 301.16598831 110.625 299.75 C110.55539062 298.96109375 110.48578125 298.1721875 110.4140625 297.359375 C109.9787895 294.87914019 109.31630309 293.14017625 108 291 C107.34 290.67 106.68 290.34 106 290 C105.27840576 288.35636866 104.60648579 286.68949614 104 285 C103.67 285 103.34 285 103 285 Z M123 285 C122.34 286.32 121.68 287.64 121 289 C124.12197478 287.6910428 124.12197478 287.6910428 126 285 C125.01 285 124.02 285 123 285 Z M113 286 C112.67 287.98 112.34 289.96 112 292 C112.66 292 113.32 292 114 292 C114 290.02 114 288.04 114 286 C113.67 286 113.34 286 113 286 Z M136.1875 289.5 C135.795625 290.325 135.40375 291.15 135 292 C135.66 292.391875 136.32 292.78375 137 293.1875 C139 295 139 295 139.25 297.6875 C139.1675 298.450625 139.085 299.21375 139 300 C139.66 300 140.32 300 141 300 C140.1875 301.9375 140.1875 301.9375 139 304 C138.01 304.33 137.02 304.66 136 305 C134.29144978 308.00007271 134.29144978 308.00007271 133 311 C136.11257569 311 138.10765685 310.82638376 141 310 C141 310.66 141 311.32 141 312 C143.03241727 311.36020151 143.03241727 311.36020151 145 310 C146.11306874 306.74641445 146.26411459 304.21774622 145 301 C144.34 300.67 143.68 300.34 143 300 C143.28875 299.46375 143.5775 298.9275 143.875 298.375 C145.16711808 295.64719516 146.08558592 292.87387282 147 290 C144.80566266 288.04947792 143.34486324 287.06729039 140.4375 286.5 C137.73926738 286.76766337 137.73926738 286.76766337 136.1875 289.5 Z M127 288 C126.67 288.99 126.34 289.98 126 291 C125.34 291 124.68 291 124 291 C123.40763416 296.71337373 123.40763416 296.71337373 126 301.5 C126.66 301.995 127.32 302.49 128 303 C129.03100868 300.11369851 129.03100868 300.11369851 129.5 297.5 C130 295 130 295 131 292 C131.66 291.67 132.32 291.34 133 291 C132.34 291 131.68 291 131 291 C131 290.34 131 289.68 131 289 C129.68 288.67 128.36 288.34 127 288 Z M120 293 C119.67 295.31 119.34 297.62 119 300 C119.66 300 120.32 300 121 300 C121 297.69 121 295.38 121 293 C120.67 293 120.34 293 120 293 Z M94 304 C94.33 304.99 94.66 305.98 95 307 C97.64 307.33 100.28 307.66 103 308 C103.33 307.01 103.66 306.02 104 305 C103.67 304.34 103.34 303.68 103 303 C98.34947128 302.73067479 98.34947128 302.73067479 94 304 Z M129 303 C129 303.66 129 304.32 129 305 C129.66 304.67 130.32 304.34 131 304 C130.34 303.67 129.68 303.34 129 303 Z M131 305 C132 307 132 307 132 307 Z M124 306 C124.99 306.99 125.98 307.98 127 309 C127.33 308.01 127.66 307.02 128 306 C126.68 306 125.36 306 124 306 Z M111 310 C111 311.32 111 312.64 111 314 C111.66 314 112.32 314 113 314 C112.67 312.68 112.34 311.36 112 310 C111.67 310 111.34 310 111 310 Z M121 310 C121.66 310.66 122.32 311.32 123 312 C123 311.34 123 310.68 123 310 C122.34 310 121.68 310 121 310 Z M127 312 C127.33 312.99 127.66 313.98 128 315 C130.01508358 315.73323796 130.01508358 315.73323796 132 316 C131.34 314.68 130.68 313.36 130 312 C129.01 312 128.02 312 127 312 Z M103 314 C102.67 315.65 102.34 317.3 102 319 C103.65 318.67 105.3 318.34 107 318 C107.33 316.35 107.66 314.7 108 313 C106.27917076 313 104.65771414 313.5722028 103 314 Z M113 318 C113 318.99 113 319.98 113 321 C115.475 321.495 115.475 321.495 118 322 C118 321.34 118 320.68 118 320 C118.66 320 119.32 320 120 320 C119.34 318.68 118.68 317.36 118 316 C115.67642489 315.81509993 115.67642489 315.81509993 113 318 Z M57 318 C57.66 318.66 58.32 319.32 59 320 C59 319.34 59 318.68 59 318 C58.34 318 57.68 318 57 318 Z M123 318 C123 318.66 123 319.32 123 320 C123.66 319.67 124.32 319.34 125 319 C124.34 318.67 123.68 318.34 123 318 Z M131 319 C131 319.66 131 320.32 131 321 C131.99 321 132.98 321 134 321 C134 320.34 134 319.68 134 319 C133.01 319 132.02 319 131 319 Z M96 320 C97 323 97 323 97 323 Z M101 320 C99.64381501 321.12534105 99.64381501 321.12534105 99.9375 324.0625 C99.958125 325.031875 99.97875 326.00125 100 327 C101.12516085 325.16715557 101.12516085 325.16715557 102 323 C101.67 322.01 101.34 321.02 101 320 Z M54 321 C50.77595022 322.66954819 50.77595022 322.66954819 50.3125 325.625 C50.209375 326.40875 50.10625 327.1925 50 328 C50.99 328 51.98 328 53 328 C53 331.3 53 334.6 53 338 C53.33 338 53.66 338 54 338 C54.06058594 337.16855469 54.12117187 336.33710938 54.18359375 335.48046875 C54.26738281 334.39378906 54.35117187 333.30710937 54.4375 332.1875 C54.51871094 331.10855469 54.59992188 330.02960938 54.68359375 328.91796875 C55 326 55 326 56 323 C55.34 322.34 54.68 321.68 54 321 Z M63 321 C62.67 322.32 62.34 323.64 62 325 C63.98 325 65.96 325 68 325 C68.33 323.68 68.66 322.36 69 321 C67.02 321 65.04 321 63 321 Z M141 321 C142.1375562 323.59141286 142.1375562 323.59141286 144 326 C146.62694422 326.41780879 146.62694422 326.41780879 149 326 C146.47211993 323.20127563 144.79588866 321.54226981 141 321 Z M109 323 C108.34 325.64 107.68 328.28 107 331 C107.99 331.33 108.98 331.66 110 332 C110.33 329.03 110.66 326.06 111 323 C110.34 323 109.68 323 109 323 Z M121 323 C121.33 323.99 121.66 324.98 122 326 C122.99 325.67 123.98 325.34 125 325 C124.67 324.34 124.34 323.68 124 323 C123.01 323 122.02 323 121 323 Z M93 324 C92.95875 325.27875 92.9175 326.5575 92.875 327.875 C92.85179687 328.59429687 92.82859375 329.31359375 92.8046875 330.0546875 C92.81668311 332.23863645 92.81668311 332.23863645 95 334 C95.66 330.7 96.32 327.4 97 324 C95.68 324 94.36 324 93 324 Z M129 324 C128.80508548 325.45736087 128.61930642 326.91594593 128.4375 328.375 C128.33308594 329.18710937 128.22867187 329.99921875 128.12109375 330.8359375 C127.81762672 333.04899186 127.81762672 333.04899186 129 335 C131.31 334.34 133.62 333.68 136 333 C135.40844669 331.68176698 134.80128537 330.37052949 134.1875 329.0625 C133.85105469 328.33160156 133.51460938 327.60070312 133.16796875 326.84765625 C132.06399866 324.66970511 132.06399866 324.66970511 129 324 Z M136 325 C136.78130071 327.49552484 136.78130071 327.49552484 138 330 C138.99 330.33 139.98 330.66 141 331 C140.67 330.01 140.34 329.02 140 328 C139.34 328 138.68 328 138 328 C137.67 327.01 137.34 326.02 137 325 C136.67 325 136.34 325 136 325 Z M59 326 C58.67 326.66 58.34 327.32 58 328 C58.66 328 59.32 328 60 328 C59.67 327.34 59.34 326.68 59 326 Z M71 328 C71.33 328.99 71.66 329.98 72 331 C72.33 330.01 72.66 329.02 73 328 C72.34 328 71.68 328 71 328 Z M121 328 C120.87625 328.78375 120.7525 329.5675 120.625 330.375 C120 333 120 333 118 335 C115.54901444 334.60467975 113.36095721 333.78698574 111 333 C111.66 334.65 112.32 336.3 113 338 C117.87664009 338.34833144 120.77050005 337.41685712 125 335 C125 333.35 125 331.7 125 330 C123.68 329.34 122.36 328.68 121 328 Z M59 330 C57.89163577 331.88316159 57.89163577 331.88316159 57 334 C57.33 334.66 57.66 335.32 58 336 C58.66 336 59.32 336 60 336 C60 334.02 60 332.04 60 330 C59.67 330 59.34 330 59 330 Z M73 331 C74 334 74 334 74 334 Z M98 331 C98.33 332.32 98.66 333.64 99 335 C99.33 334.34 99.66 333.68 100 333 C99.34 332.34 98.68 331.68 98 331 Z M136 333 C136 333.66 136 334.32 136 335 C136.66 334.67 137.32 334.34 138 334 C137.34 333.67 136.68 333.34 136 333 Z M72 334 C71.34 334.66 70.68 335.32 70 336 C70.33 336.99 70.66 337.98 71 339 C71.66 338.34 72.32 337.68 73 337 C72.67 336.01 72.34 335.02 72 334 Z M101 335 C100.67 335.99 100.34 336.98 100 338 C100.99 339.485 100.99 339.485 102 341 C102.70164642 342.98799818 103.37372872 344.98698517 104 347 C109.27369782 348.07626486 112.96783018 348.01286793 118 346 C118.33 345.01 118.66 344.02 119 343 C119.99 343 120.98 343 122 343 C121.67 344.65 121.34 346.3 121 348 C123.0162233 347.28436734 123.0162233 347.28436734 125 346 C125.80528889 343.94999129 125.80528889 343.94999129 126 342 C122.26317891 340.18497261 119.99179743 339.66940086 116 341 C115.67 341.66 115.34 342.32 115 343 C112.1875 343.875 112.1875 343.875 109 344 C105.73122128 341.57176438 104.02880714 338.4779551 102 335 C101.67 335 101.34 335 101 335 Z M138 335 C138.33 335.99 138.66 336.98 139 338 C139.66 338 140.32 338 141 338 C141 337.34 141 336.68 141 336 C140.01 335.67 139.02 335.34 138 335 Z M90 336 C89.67 336.66 89.34 337.32 89 338 C89.66 338.66 90.32 339.32 91 340 C91.33 338.68 91.66 337.36 92 336 C91.34 336 90.68 336 90 336 Z M131 337 C130.01 338.485 130.01 338.485 129 340 C131.32854463 341.19838209 131.32854463 341.19838209 134 342 C134.99 341.34 135.98 340.68 137 340 C135.68798827 338.43750191 135.68798827 338.43750191 134 337 C133.01 337 132.02 337 131 337 Z M109 338 C110 341 110 341 110 341 Z M66 339 C70 340 70 340 70 340 Z M51 341 C51.27034634 343.43717258 51.27034634 343.43717258 52 346 C54.95377498 348.36980013 54.95377498 348.36980013 59 348 C59 347.01 59 346.02 59 345 C55.56644853 341.66862283 55.56644853 341.66862283 51 341 Z M78 345 C77.01 345.33 76.02 345.66 75 346 C74.525625 347.134375 74.05125 348.26875 73.5625 349.4375 C72 353 72 353 69.8125 354.4375 C68.9153125 354.7159375 68.9153125 354.7159375 68 355 C68 355.99 68 356.98 68 358 C72.75481646 357.42365861 75.97048212 355.44931479 80 353 C80 352.34 80 351.68 80 351 C80.78375 350.690625 81.5675 350.38125 82.375 350.0625 C84.92330128 349.07124962 84.92330128 349.07124962 87 348 C86.67 345.69 86.34 343.38 86 341 C82.06764531 341 80.97035951 342.54945341 78 345 Z M70.6875 342 C67.91161029 343.03288919 65.9313735 343.16750706 63 343 C63 343.66 63 344.32 63 345 C69.31268603 345.37552165 69.31268603 345.37552165 75 343 C75 342.34 75 341.68 75 341 C72.88604309 340.86769628 72.88604309 340.86769628 70.6875 342 Z M63 350 C63 350.66 63 351.32 63 352 C63.66 351.67 64.32 351.34 65 351 C64.34 350.67 63.68 350.34 63 350 Z M53 351 C53 351.66 53 352.32 53 353 C53.99 353 54.98 353 56 353 C56 352.34 56 351.68 56 351 C55.01 351 54.02 351 53 351 Z M59 358 C58.01 359.485 58.01 359.485 57 361 C59.31 361 61.62 361 64 361 C63.67 360.01 63.34 359.02 63 358 C61.68 358 60.36 358 59 358 Z M56 361 C55.67 361.66 55.34 362.32 55 363 C55.66 363 56.32 363 57 363 C56.67 362.34 56.34 361.68 56 361 Z M43 362 C41.5393715 364.64738916 41 365.89448334 41 369 C44.465 368.505 44.465 368.505 48 368 C46.515 365.03 46.515 365.03 45 362 C44.34 362 43.68 362 43 362 Z M72 377 C71.01 378.485 71.01 378.485 70 380 C68.7625 380.7115625 68.7625 380.7115625 67.5 381.4375 C64.84273777 383.09828889 64.09014304 384.12598653 63 387 C67.97545809 389.71573013 67.97545809 389.71573013 73.4375 389.1875 C74.283125 388.795625 75.12875 388.40375 76 388 C76 384.7 76 381.4 76 378 C74.68 377.67 73.36 377.34 72 377 Z M79 383 C79.33 383.99 79.66 384.98 80 386 C80.66 386 81.32 386 82 386 C82 385.01 82 384.02 82 383 C81.01 383 80.02 383 79 383 Z M66 394 C65.67 394.99 65.34 395.98 65 397 C66.97536745 396.65213292 66.97536745 396.65213292 69 396 C69.33 395.34 69.66 394.68 70 394 C68.68 394 67.36 394 66 394 Z " fill="#FEFEFE" transform="translate(278,86)"/>
<path d="M0 0 C1.08066093 4.65284568 1.2931856 8.37227834 0 13 C-3.81122127 17.42171132 -9.14630824 20.39358745 -13.97021484 23.59423828 C-18.34561877 26.62449758 -21.98858076 30.30375228 -25.49316406 34.28857422 C-26.61329879 35.56079464 -27.75405019 36.81492302 -28.90527344 38.05908203 C-37.19573668 46.60975822 -37.19573668 46.60975822 -41.17236328 57.39111328 C-40.59786784 61.95553217 -38.96840852 65.9634157 -36.94189453 70.06396484 C-34.93234364 74.19453471 -33 78.36344386 -33 83 C-34.75 82.875 -34.75 82.875 -37 82 C-40.14948154 77.78375858 -42.27367342 73.45490015 -44.25 68.625 C-44.518125 67.98433594 -44.78625 67.34367187 -45.0625 66.68359375 C-45.71396273 65.1247365 -46.35779672 63.56269465 -47 62 C-47.66 62 -48.32 62 -49 62 C-49.7425 63.051875 -49.7425 63.051875 -50.5 64.125 C-54.82604617 69.09995309 -61.57659905 73.53558097 -68.26953125 74.23828125 C-72.42882675 74.3596739 -75.42998138 74.2366115 -79.3125 72.625 C-83.98109702 68.064975 -86.50379473 62.30121394 -88 56 C-88.59425781 57.06476563 -89.18851562 58.12953125 -89.80078125 59.2265625 C-102.73567482 82.03108374 -119.5547042 103.71906861 -145.62890625 111.81640625 C-161.10153782 115.36790916 -176.57124065 112.24446619 -190 104 C-200.67526478 96.53017666 -210.55227592 86.77948727 -213.52832031 73.67333984 C-215.81198226 60.73022474 -215.33344482 45.94094729 -208.52734375 34.53125 C-200.54831892 23.21348428 -188.47835636 18.01061729 -175.21484375 15.46557617 C-171.81239459 14.97283084 -168.48121481 14.75810093 -165.046875 14.60546875 C-163.69998127 14.53953224 -162.35314005 14.47251609 -161.00634766 14.40454102 C-159.96259979 14.35222824 -159.96259979 14.35222824 -158.89776611 14.29885864 C-143.28553982 13.48938674 -129.04621104 11.3197466 -114.125 6.52734375 C-110.69278453 5.6755991 -107.51759718 5.80457793 -104 6 C-104.1171875 7.78125 -104.1171875 7.78125 -105 10 C-107.6328125 11.78125 -107.6328125 11.78125 -111.125 13.5 C-112.24132812 14.0671875 -113.35765625 14.634375 -114.5078125 15.21875 C-127.13979091 20.62332568 -140.37003486 21.96137881 -153.88964844 23.20898438 C-168.85298202 24.61927695 -184.50183128 26.85867842 -195.4375 38.25 C-200.43543884 44.677944 -201.99477662 53.02815993 -201 61 C-198.9772268 71.05114434 -194.29898815 79.51868719 -185.84765625 85.53125 C-174.15784162 93.06591725 -159.37742523 95.64902307 -145.625 93.375 C-130.06121058 89.41898664 -117.73234609 77.47975792 -108.4375 64.875 C-107.93935791 64.20702393 -107.44121582 63.53904785 -106.92797852 62.85083008 C-101.91467908 56.04204476 -97.24997864 49.00075346 -92.63256836 41.91943359 C-92.07190674 41.0630127 -91.51124512 40.2065918 -90.93359375 39.32421875 C-90.43915771 38.56197998 -89.94472168 37.79974121 -89.43530273 37.0144043 C-88.07801022 35.10948501 -86.77901699 33.51751203 -85 32 C-84.34 32 -83.68 32 -83 32 C-82.75765625 33.01320313 -82.5153125 34.02640625 -82.265625 35.0703125 C-81.92769604 36.42202833 -81.58911976 37.77358243 -81.25 39.125 C-81.09273437 39.79015625 -80.93546875 40.4553125 -80.7734375 41.140625 C-79.45871477 46.29838342 -77.57275464 50.97854993 -73.25 54.375 C-67.69652973 55.91763063 -63.54805275 55.65867487 -58.5625 52.875 C-56.03406947 51.08319884 -55.11192646 50.24741638 -53.8125 47.375 C-53.98742517 44.22634696 -54.54888461 41.87731219 -55.4375 38.875 C-58.12551533 29.75804478 -58.14112604 20.67494506 -54 12 C-50.78664572 6.83568063 -46.41043383 4.0769791 -40.625 2.25 C-34.5715094 1.67347709 -28.98833567 2.00194405 -23 3 C-16.39240786 3.69073448 -11.47995821 2.3569054 -5.3828125 -0.22265625 C-3 -1 -3 -1 0 0 Z M-44 20 C-46.87412819 23.55039365 -47.18194183 26.22067382 -46.8125 30.625 C-46.39515841 33.79679608 -45.54110844 36.19683156 -44 39 C-38.85539222 35.19746381 -35.24952791 30.91815293 -31.5625 25.75 C-30.88888428 24.81003174 -30.88888428 24.81003174 -30.20166016 23.85107422 C-27.79640227 20.72264744 -27.79640227 20.72264744 -27 17 C-33.10622139 16.66693338 -38.51506351 17.0628332 -44 20 Z " fill="#FFFFFF" transform="translate(406,241)"/>
<path d="M0 0 C4.78308974 0.44493858 7.79277237 1.30682879 11 5 C11.10267658 10.54453543 9.21741307 13.74471174 6 18 C1.49197399 16.74194623 -1.4912812 15.09592835 -5 12 C-4.42365861 7.24518354 -2.44931479 4.02951788 0 0 Z " fill="#FFFFFF" transform="translate(272,356)"/>
<path d="M0 0 C0.99 0 1.98 0 3 0 C3.67286212 2.41509441 4.33846012 4.83180356 5 7.25 C5.19078125 7.93191406 5.3815625 8.61382812 5.578125 9.31640625 C6.49957044 12.70600912 7 15.45778976 7 19 C5.109375 18.75 5.109375 18.75 3 18 C-0.29667106 12.48914688 -0.2960905 6.21790059 0 0 Z " fill="#FEFEFE" transform="translate(391,127)"/>
</svg>
