<?xml version="1.0" encoding="UTF-8" standalone="no"?>
<!-- Created with Inkscape (http://www.inkscape.org/) -->

<svg
   width="34.073757mm"
   height="21.250431mm"
   viewBox="0 0 34.073757 21.250431"
   version="1.1"
   id="svg1"
   xml:space="preserve"
   xmlns="http://www.w3.org/2000/svg"
   xmlns:svg="http://www.w3.org/2000/svg"><defs
     id="defs1" /><g
     id="layer1"
     transform="translate(-97.760915,-158.2619)"><path
       style="display:inline;fill:#aa0000;fill-opacity:0;stroke:#000000;stroke-width:0.264999;stroke-opacity:1"
       d="m 124.07449,165.18191 c 0,0 -1.32747,-3.27443 1.06198,-3.67268 2.38945,-0.39824 1.94696,0.177 1.94696,0.177 0,0 -2.65495,3.62843 -3.00894,3.49568 z"
       id="path2" /><path
       style="display:inline;fill:#aa0000;fill-opacity:0;stroke:#000000;stroke-width:0.264999;stroke-opacity:1"
       d="m 123.5435,165.84565 c 0,0 -1.63721,-3.36293 -0.0442,-5.66389 1.59297,-2.30095 5.0444,-0.97348 5.0444,-0.97348 0,0 1.85846,-0.24336 2.65495,-0.75223 0.74577,-0.47646 0.44249,1.94696 0.44249,1.94696 0,0 -2.57145,1.3667 -4.55766,3.93817 -2.05448,2.65985 -2.06114,2.73293 -2.06114,2.73293 0,0 0.77033,2.63149 1.26466,3.86019 0.4877,1.21222 -0.53099,0.13274 -0.53099,0.13274 0,0 -1.06198,-2.3452 -1.41597,-3.14168 -0.354,-0.79649 0,0.75223 -2.7877,1.90271 -2.78769,1.15047 -3.27443,-3.18594 -3.27443,-3.18594 0,0 -4.8674,6.85861 -7.4781,8.09759 -2.6107,1.23897 -3.49568,1.37172 -5.22139,1.19472 -1.72572,-0.17699 -6.565518,-1.37608 -7.455328,-5.88513 -0.941815,-4.77258 1.313595,-6.68069 1.313595,-6.68069 0,0 1.768273,-2.47932 6.539973,-2.52312 4.34435,-0.0399 5.92937,-0.70799 5.92937,-0.70799 0,0 2.6107,-0.84073 3.09745,-0.75223 0.48674,0.0885 0.0885,0.57524 -1.01774,1.06198 -0.61955,0.2726 -2.52219,1.19472 -5.61963,1.37171 -3.09744,0.177 -7.0706,0.57198 -8.584326,3.18595 -0.509726,0.88022 -1.371724,2.65495 0.221246,5.53113 1.51048,2.72725 5.92938,3.58418 8.05334,2.8762 2.12395,-0.70799 3.11332,-1.13361 5.00014,-3.09744 1.75603,-1.82771 5.49244,-6.82442 5.53114,-6.50462 0.21018,1.73678 0.57524,2.2567 0.57524,2.2567 0,0 0.57524,1.28323 1.81422,1.32748 1.10552,0.0395 2.1682,-0.84074 2.56644,-1.54872 z"
       id="path1" /><path
       style="fill:#aa0000;fill-opacity:0;stroke:#000000;stroke-width:0.264999;stroke-opacity:1"
       d="m 111.34561,179.3624 c -0.354,-0.16593 -1.28839,-0.66379 -1.44703,-0.90599 -0.16564,-0.25287 0.54719,-1.58167 0.76843,-1.76973 0.18847,-0.16021 0.97723,0.29822 1.54572,0.77649 0.18834,0.15845 -0.64588,1.76649 -0.86712,1.89923 z"
       id="path3" /></g></svg>
